<svg width="179" height="61" viewBox="0 0 179 61" fill="none" xmlns="http://www.w3.org/2000/svg">
<path d="M72.296 53V34.824H65.128V30.6H84.648V34.824H77.48V53H72.296ZM98.0048 53.384C96.2341 53.384 94.5914 53.096 93.0768 52.52C91.5834 51.944 90.2821 51.1333 89.1727 50.088C88.0848 49.0427 87.2314 47.816 86.6128 46.408C86.0154 45 85.7168 43.464 85.7168 41.8C85.7168 40.136 86.0154 38.6 86.6128 37.192C87.2314 35.784 88.0954 34.5573 89.2048 33.512C90.3141 32.4667 91.6154 31.656 93.1088 31.08C94.6021 30.504 96.2234 30.216 97.9728 30.216C99.7434 30.216 101.365 30.504 102.837 31.08C104.33 31.656 105.621 32.4667 106.709 33.512C107.818 34.5573 108.682 35.784 109.301 37.192C109.919 38.5787 110.229 40.1147 110.229 41.8C110.229 43.464 109.919 45.0107 109.301 46.44C108.682 47.848 107.818 49.0747 106.709 50.12C105.621 51.144 104.33 51.944 102.837 52.52C101.365 53.096 99.7541 53.384 98.0048 53.384ZM97.9728 48.968C98.9754 48.968 99.8928 48.7973 100.725 48.456C101.578 48.1147 102.325 47.624 102.965 46.984C103.605 46.344 104.095 45.5867 104.437 44.712C104.799 43.8373 104.981 42.8667 104.981 41.8C104.981 40.7333 104.799 39.7627 104.437 38.888C104.095 38.0133 103.605 37.256 102.965 36.616C102.346 35.976 101.61 35.4853 100.757 35.144C99.9034 34.8027 98.9754 34.632 97.9728 34.632C96.9701 34.632 96.0421 34.8027 95.1888 35.144C94.3568 35.4853 93.6208 35.976 92.9808 36.616C92.3408 37.256 91.8394 38.0133 91.4768 38.888C91.1354 39.7627 90.9648 40.7333 90.9648 41.8C90.9648 42.8453 91.1354 43.816 91.4768 44.712C91.8394 45.5867 92.3301 46.344 92.9488 46.984C93.5888 47.624 94.3354 48.1147 95.1888 48.456C96.0421 48.7973 96.9701 48.968 97.9728 48.968ZM125.005 53.384C123.234 53.384 121.591 53.096 120.077 52.52C118.583 51.944 117.282 51.1333 116.173 50.088C115.085 49.0427 114.231 47.816 113.613 46.408C113.015 45 112.717 43.464 112.717 41.8C112.717 40.136 113.015 38.6 113.613 37.192C114.231 35.784 115.095 34.5573 116.205 33.512C117.314 32.4667 118.615 31.656 120.109 31.08C121.602 30.504 123.223 30.216 124.973 30.216C126.743 30.216 128.365 30.504 129.837 31.08C131.33 31.656 132.621 32.4667 133.709 33.512C134.818 34.5573 135.682 35.784 136.301 37.192C136.919 38.5787 137.229 40.1147 137.229 41.8C137.229 43.464 136.919 45.0107 136.301 46.44C135.682 47.848 134.818 49.0747 133.709 50.12C132.621 51.144 131.33 51.944 129.837 52.52C128.365 53.096 126.754 53.384 125.005 53.384ZM124.973 48.968C125.975 48.968 126.893 48.7973 127.725 48.456C128.578 48.1147 129.325 47.624 129.965 46.984C130.605 46.344 131.095 45.5867 131.437 44.712C131.799 43.8373 131.981 42.8667 131.981 41.8C131.981 40.7333 131.799 39.7627 131.437 38.888C131.095 38.0133 130.605 37.256 129.965 36.616C129.346 35.976 128.61 35.4853 127.757 35.144C126.903 34.8027 125.975 34.632 124.973 34.632C123.97 34.632 123.042 34.8027 122.189 35.144C121.357 35.4853 120.621 35.976 119.981 36.616C119.341 37.256 118.839 38.0133 118.477 38.888C118.135 39.7627 117.965 40.7333 117.965 41.8C117.965 42.8453 118.135 43.816 118.477 44.712C118.839 45.5867 119.33 46.344 119.949 46.984C120.589 47.624 121.335 48.1147 122.189 48.456C123.042 48.7973 123.97 48.968 124.973 48.968ZM141.125 53V30.6H146.309V48.776H157.541V53H141.125ZM167.797 53.384C166.005 53.384 164.288 53.1493 162.645 52.68C161.003 52.1893 159.68 51.56 158.677 50.792L160.437 46.888C161.397 47.5707 162.528 48.136 163.829 48.584C165.152 49.0107 166.485 49.224 167.829 49.224C168.853 49.224 169.675 49.128 170.293 48.936C170.933 48.7227 171.403 48.4347 171.701 48.072C172 47.7093 172.149 47.2933 172.149 46.824C172.149 46.2267 171.915 45.7573 171.445 45.416C170.976 45.0533 170.357 44.7653 169.589 44.552C168.821 44.3173 167.968 44.104 167.029 43.912C166.112 43.6987 165.184 43.4427 164.245 43.144C163.328 42.8453 162.485 42.4613 161.717 41.992C160.949 41.5227 160.32 40.904 159.829 40.136C159.36 39.368 159.125 38.3867 159.125 37.192C159.125 35.912 159.467 34.7493 160.149 33.704C160.853 32.6373 161.899 31.7947 163.285 31.176C164.693 30.536 166.453 30.216 168.565 30.216C169.973 30.216 171.36 30.3867 172.725 30.728C174.091 31.048 175.296 31.5387 176.341 32.2L174.741 36.136C173.696 35.5387 172.651 35.1013 171.605 34.824C170.56 34.5253 169.536 34.376 168.533 34.376C167.531 34.376 166.709 34.4933 166.069 34.728C165.429 34.9627 164.971 35.272 164.693 35.656C164.416 36.0187 164.277 36.4453 164.277 36.936C164.277 37.512 164.512 37.9813 164.981 38.344C165.451 38.6853 166.069 38.9627 166.837 39.176C167.605 39.3893 168.448 39.6027 169.365 39.816C170.304 40.0293 171.232 40.2747 172.149 40.552C173.088 40.8293 173.941 41.2027 174.709 41.672C175.477 42.1413 176.096 42.76 176.565 43.528C177.056 44.296 177.301 45.2667 177.301 46.44C177.301 47.6987 176.949 48.8507 176.245 49.896C175.541 50.9413 174.485 51.784 173.077 52.424C171.691 53.064 169.931 53.384 167.797 53.384Z" fill="white"/>
<path fill-rule="evenodd" clip-rule="evenodd" d="M44.864 47.2458C50.4666 42.2985 54 35.0619 54 27C54 12.0883 41.9117 0 27 0C21.1021 0 15.6459 1.89109 11.2046 5.09999H27.792C32.304 5.09999 36.192 5.84399 39.456 7.332C42.72 8.77199 45.24 10.86 47.016 13.596C48.792 16.332 49.68 19.596 49.68 23.388C49.68 27.132 48.792 30.372 47.016 33.108C45.24 35.796 42.72 37.86 39.456 39.3C39.4232 39.3145 39.3902 39.3289 39.3571 39.3433L44.864 47.2458ZM35.9388 52.4852L28.3403 41.4564C28.1586 41.4588 27.9759 41.46 27.792 41.46H17.64V52.3335C20.5562 53.4113 23.7093 54 27 54C30.1328 54 33.1411 53.4664 35.9388 52.4852ZM5.97601 43.9423C2.23801 39.3096 0 33.4162 0 27C0 20.5838 2.23801 14.6904 5.97601 10.0577V43.9423ZM17.64 32.172V14.604H27.144C30.744 14.604 33.432 15.372 35.208 16.908C36.984 18.444 37.872 20.604 37.872 23.388C37.872 26.124 36.984 28.284 35.208 29.868C33.432 31.404 30.744 32.172 27.144 32.172H17.64Z" fill="#B3EFB9"/>
<circle cx="58.5" cy="48.5" r="4.5" fill="#B3EFB9"/>
</svg>
